<svg width="166" height="171" viewBox="0 0 166 171" fill="none" xmlns="http://www.w3.org/2000/svg">
<g filter="url(#filter0_d_2086_3938)">
<rect x="3.4187" width="162.14" height="162.14" rx="34.7442" fill="#FFF7E8"/>
<rect x="6.31405" y="2.89535" width="156.349" height="156.349" rx="31.8488" stroke="black" stroke-width="5.7907"/>
</g>
<g clip-path="url(#clip0_2086_3938)">
<path d="M84.489 40.7103C97.6402 40.7103 99.1976 40.768 104.37 40.9987C109.176 41.2102 111.772 42.0177 113.502 42.6907C115.79 43.5751 117.444 44.6518 119.155 46.363C120.886 48.0934 121.943 49.7277 122.828 52.0157C123.5 53.7462 124.308 56.361 124.519 61.1485C124.75 66.3398 124.808 67.8972 124.808 81.0292C124.808 94.1804 124.75 95.7378 124.519 100.91C124.308 105.717 123.5 108.312 122.828 110.043C121.943 112.331 120.866 113.984 119.155 115.695C117.425 117.426 115.79 118.483 113.502 119.368C111.772 120.041 109.157 120.848 104.37 121.06C99.1784 121.29 97.621 121.348 84.489 121.348C71.3378 121.348 69.7804 121.29 64.6084 121.06C59.8016 120.848 57.206 120.041 55.4756 119.368C53.1876 118.483 51.534 117.407 49.8229 115.695C48.0924 113.965 47.0349 112.331 46.1505 110.043C45.4776 108.312 44.67 105.697 44.4585 100.91C44.2278 95.7185 44.1701 94.1612 44.1701 81.0292C44.1701 67.8779 44.2278 66.3206 44.4585 61.1485C44.67 56.3418 45.4776 53.7462 46.1505 52.0157C47.0349 49.7277 48.1117 48.0742 49.8229 46.363C51.5533 44.6326 53.1876 43.5751 55.4756 42.6907C57.206 42.0177 59.8209 41.2102 64.6084 40.9987C69.7804 40.768 71.3378 40.7103 84.489 40.7103ZM84.489 31.8467C71.1263 31.8467 69.4536 31.9044 64.2046 32.1351C58.9749 32.3658 55.3794 33.2118 52.2647 34.4231C49.0153 35.6921 46.2659 37.3648 43.5356 40.1143C40.7862 42.8445 39.1135 45.5939 37.8445 48.8241C36.6332 51.9581 35.7872 55.5343 35.5565 60.764C35.3257 66.0322 35.2681 67.7049 35.2681 81.0676C35.2681 94.4303 35.3257 96.1031 35.5565 101.352C35.7872 106.582 36.6332 110.177 37.8445 113.292C39.1135 116.541 40.7862 119.291 43.5356 122.021C46.2659 124.751 49.0153 126.443 52.2454 127.693C55.3794 128.904 58.9556 129.75 64.1854 129.981C69.4343 130.212 71.1071 130.269 84.4698 130.269C97.8325 130.269 99.5052 130.212 104.754 129.981C109.984 129.75 113.579 128.904 116.694 127.693C119.924 126.443 122.674 124.751 125.404 122.021C128.134 119.291 129.826 116.541 131.076 113.311C132.287 110.177 133.133 106.601 133.364 101.371C133.595 96.1223 133.652 94.4496 133.652 81.0869C133.652 67.7241 133.595 66.0514 133.364 60.8024C133.133 55.5727 132.287 51.9773 131.076 48.8625C129.865 45.5939 128.192 42.8445 125.442 40.1143C122.712 37.384 119.963 35.6921 116.733 34.4423C113.599 33.231 110.022 32.385 104.793 32.1543C99.5245 31.9044 97.8517 31.8467 84.489 31.8467Z" fill="black"/>
<path d="M84.4892 55.7842C70.5305 55.7842 59.2058 67.1088 59.2058 81.0676C59.2058 95.0263 70.5305 106.351 84.4892 106.351C98.448 106.351 109.773 95.0263 109.773 81.0676C109.773 67.1088 98.448 55.7842 84.4892 55.7842ZM84.4892 97.4682C75.4333 97.4682 68.0887 90.1235 68.0887 81.0676C68.0887 72.0117 75.4333 64.667 84.4892 64.667C93.5451 64.667 100.89 72.0117 100.89 81.0676C100.89 90.1235 93.5451 97.4682 84.4892 97.4682Z" fill="black"/>
<path d="M116.675 54.7845C116.675 58.0531 114.021 60.6872 110.772 60.6872C107.503 60.6872 104.869 58.0339 104.869 54.7845C104.869 51.5159 107.523 48.8818 110.772 48.8818C114.021 48.8818 116.675 51.5352 116.675 54.7845Z" fill="black"/>
</g>
<defs>
<filter id="filter0_d_2086_3938" x="0.523352" y="0" width="165.035" height="170.826" filterUnits="userSpaceOnUse" color-interpolation-filters="sRGB">
<feFlood flood-opacity="0" result="BackgroundImageFix"/>
<feColorMatrix in="SourceAlpha" type="matrix" values="0 0 0 0 0 0 0 0 0 0 0 0 0 0 0 0 0 0 127 0" result="hardAlpha"/>
<feOffset dx="-2.89535" dy="8.68605"/>
<feComposite in2="hardAlpha" operator="out"/>
<feColorMatrix type="matrix" values="0 0 0 0 0 0 0 0 0 0 0 0 0 0 0 0 0 0 1 0"/>
<feBlend mode="normal" in2="BackgroundImageFix" result="effect1_dropShadow_2086_3938"/>
<feBlend mode="normal" in="SourceGraphic" in2="effect1_dropShadow_2086_3938" result="shape"/>
</filter>
<clipPath id="clip0_2086_3938">
<rect width="98.4419" height="98.4419" fill="white" transform="translate(35.2681 31.8467)"/>
</clipPath>
</defs>
</svg>
