<svg width="166" height="171" viewBox="0 0 166 171" fill="none" xmlns="http://www.w3.org/2000/svg">
<g filter="url(#filter0_d_2086_3932)">
<rect x="3.13965" width="162.14" height="162.14" rx="34.7442" fill="#FFF7E8"/>
<rect x="6.035" y="2.89535" width="156.349" height="156.349" rx="31.8488" stroke="black" stroke-width="5.7907"/>
</g>
<g clip-path="url(#clip0_2086_3932)">
<path d="M118.324 48.8908C112.05 46.0119 105.322 43.8908 98.287 42.676C98.1589 42.6525 98.0309 42.7111 97.9649 42.8283C97.0996 44.3674 96.1411 46.3752 95.4699 47.9533C87.9034 46.8205 80.3758 46.8205 72.9645 47.9533C72.2932 46.3401 71.2999 44.3674 70.4307 42.8283C70.3647 42.7151 70.2367 42.6565 70.1086 42.676C63.0776 43.8869 56.3493 46.008 50.0711 48.8908C50.0168 48.9143 49.9702 48.9534 49.9393 49.0041C37.1771 68.0705 33.681 86.6683 35.3961 105.035C35.4038 105.125 35.4543 105.211 35.5241 105.266C43.9442 111.449 52.1005 115.203 60.1054 117.692C60.2335 117.731 60.3692 117.684 60.4508 117.578C62.3443 114.992 64.0322 112.266 65.4795 109.399C65.5649 109.231 65.4834 109.031 65.3088 108.965C62.6315 107.949 60.0821 106.711 57.6298 105.305C57.4358 105.192 57.4203 104.914 57.5987 104.781C58.1148 104.395 58.631 103.992 59.1237 103.586C59.2129 103.512 59.3371 103.496 59.4419 103.543C75.5526 110.899 92.9943 110.899 108.915 103.543C109.02 103.492 109.144 103.508 109.237 103.582C109.73 103.988 110.246 104.395 110.766 104.781C110.944 104.914 110.933 105.192 110.739 105.305C108.286 106.738 105.737 107.949 103.056 108.961C102.881 109.028 102.804 109.231 102.889 109.399C104.367 112.262 106.055 114.988 107.914 117.574C107.991 117.684 108.131 117.731 108.259 117.692C116.303 115.203 124.459 111.449 132.879 105.266C132.953 105.211 133 105.129 133.007 105.039C135.06 83.8049 129.569 65.3596 118.452 49.008C118.425 48.9534 118.379 48.9143 118.324 48.8908ZM67.8853 93.8517C63.0349 93.8517 59.0383 89.3987 59.0383 83.9299C59.0383 78.4611 62.9574 74.0081 67.8853 74.0081C72.8519 74.0081 76.8099 78.5002 76.7322 83.9299C76.7322 89.3987 72.8131 93.8517 67.8853 93.8517ZM100.596 93.8517C95.7454 93.8517 91.7488 89.3987 91.7488 83.9299C91.7488 78.4611 95.6677 74.0081 100.596 74.0081C105.562 74.0081 109.52 78.5002 109.443 83.9299C109.443 89.3987 105.562 93.8517 100.596 93.8517Z" fill="black"/>
</g>
<defs>
<filter id="filter0_d_2086_3932" x="0.244299" y="0" width="165.035" height="170.826" filterUnits="userSpaceOnUse" color-interpolation-filters="sRGB">
<feFlood flood-opacity="0" result="BackgroundImageFix"/>
<feColorMatrix in="SourceAlpha" type="matrix" values="0 0 0 0 0 0 0 0 0 0 0 0 0 0 0 0 0 0 127 0" result="hardAlpha"/>
<feOffset dx="-2.89535" dy="8.68605"/>
<feComposite in2="hardAlpha" operator="out"/>
<feColorMatrix type="matrix" values="0 0 0 0 0 0 0 0 0 0 0 0 0 0 0 0 0 0 1 0"/>
<feBlend mode="normal" in2="BackgroundImageFix" result="effect1_dropShadow_2086_3932"/>
<feBlend mode="normal" in="SourceGraphic" in2="effect1_dropShadow_2086_3932" result="shape"/>
</filter>
<clipPath id="clip0_2086_3932">
<rect width="98.4419" height="98.4419" fill="white" transform="translate(34.9893 31.8467)"/>
</clipPath>
</defs>
</svg>
