<svg width="166" height="171" viewBox="0 0 166 171" fill="none" xmlns="http://www.w3.org/2000/svg">
<g filter="url(#filter0_d_2086_3935)">
<rect x="3.27905" width="162.14" height="162.14" rx="34.7442" fill="#FFF7E8"/>
<rect x="6.1744" y="2.89535" width="156.349" height="156.349" rx="31.8488" stroke="black" stroke-width="5.7907"/>
</g>
<g clip-path="url(#clip0_2086_3935)">
<path fill-rule="evenodd" clip-rule="evenodd" d="M133.57 81.0676C133.57 108.252 111.533 130.289 84.3486 130.289C57.1647 130.289 35.1277 108.252 35.1277 81.0676C35.1277 53.8836 57.1647 31.8467 84.3486 31.8467C111.533 31.8467 133.57 53.8836 133.57 81.0676ZM86.1125 68.1837C81.325 70.175 71.7568 74.2964 57.4079 80.548C55.0779 81.4746 53.8573 82.3811 53.7462 83.2674C53.5584 84.7653 55.4342 85.3552 57.9886 86.1584C58.3361 86.2676 58.6961 86.3808 59.0652 86.5008C61.5784 87.3177 64.959 88.2735 66.7164 88.3114C68.3106 88.3459 70.0898 87.6886 72.0542 86.3398C85.4608 77.2899 92.3814 72.7157 92.8159 72.6171C93.1224 72.5475 93.5472 72.46 93.835 72.7158C94.1228 72.9716 94.0945 73.4561 94.064 73.5861C93.8782 74.3782 86.5149 81.2239 82.7043 84.7665C81.5164 85.8709 80.6738 86.6543 80.5015 86.8332C80.1156 87.234 79.7224 87.6131 79.3444 87.9774C77.0096 90.2282 75.2588 91.916 79.4414 94.6722C81.4513 95.9968 83.0597 97.0921 84.6643 98.1848C86.4166 99.3782 88.1644 100.568 90.4258 102.051C91.002 102.428 91.5522 102.821 92.0882 103.203C94.1275 104.657 95.9596 105.963 98.2231 105.755C99.5384 105.633 100.897 104.397 101.587 100.708C103.218 91.9911 106.423 73.1039 107.163 65.3209C107.228 64.639 107.147 63.7663 107.081 63.3833C107.016 63.0002 106.879 62.4543 106.381 62.0503C105.791 61.5718 104.88 61.4709 104.473 61.478C102.622 61.5106 99.7817 62.4983 86.1125 68.1837Z" fill="black"/>
</g>
<defs>
<filter id="filter0_d_2086_3935" x="0.383703" y="0" width="165.035" height="170.826" filterUnits="userSpaceOnUse" color-interpolation-filters="sRGB">
<feFlood flood-opacity="0" result="BackgroundImageFix"/>
<feColorMatrix in="SourceAlpha" type="matrix" values="0 0 0 0 0 0 0 0 0 0 0 0 0 0 0 0 0 0 127 0" result="hardAlpha"/>
<feOffset dx="-2.89535" dy="8.68605"/>
<feComposite in2="hardAlpha" operator="out"/>
<feColorMatrix type="matrix" values="0 0 0 0 0 0 0 0 0 0 0 0 0 0 0 0 0 0 1 0"/>
<feBlend mode="normal" in2="BackgroundImageFix" result="effect1_dropShadow_2086_3935"/>
<feBlend mode="normal" in="SourceGraphic" in2="effect1_dropShadow_2086_3935" result="shape"/>
</filter>
<clipPath id="clip0_2086_3935">
<rect width="98.4419" height="98.4419" fill="white" transform="translate(35.1277 31.8467)"/>
</clipPath>
</defs>
</svg>
